<svg xmlns="http://www.w3.org/2000/svg" width="40" height="40" viewBox="0 0 40 40"><g transform="translate(-867 -1579)"><g transform="translate(867 1579)"><g transform="translate(0)"><path d="M28.752,40a11.132,11.132,0,0,1-3.823-.683A40.773,40.773,0,0,1,10.124,29.88,40.773,40.773,0,0,1,.687,15.075,11.068,11.068,0,0,1,.123,9.638,11.35,11.35,0,0,1,5.954,1.331,11.142,11.142,0,0,1,11.286,0a1.251,1.251,0,0,1,1.223.988l1.961,9.155a1.248,1.248,0,0,1-.339,1.146L10.78,14.641A32.906,32.906,0,0,0,25.363,29.223l3.352-3.352a1.251,1.251,0,0,1,1.146-.339l9.155,1.962A1.249,1.249,0,0,1,40,28.717a11.138,11.138,0,0,1-1.332,5.333,11.346,11.346,0,0,1-8.305,5.831A11.113,11.113,0,0,1,28.752,40ZM10.288,2.554A8.759,8.759,0,0,0,3.036,14.222,37.917,37.917,0,0,0,25.782,36.968,8.759,8.759,0,0,0,37.45,29.716L30,28.12l-3.5,3.5a1.25,1.25,0,0,1-1.416.248A35.4,35.4,0,0,1,8.135,14.92,1.25,1.25,0,0,1,8.383,13.5l3.5-3.5Zm0,0" transform="translate(-0.004)" fill="#787878"/></g><path d="M196.176,17.176a1.011,1.011,0,0,1-1.01-1.01A14.161,14.161,0,0,0,181.02,2.021a1.01,1.01,0,0,1,0-2.021,16.165,16.165,0,0,1,16.166,16.166,1.01,1.01,0,0,1-1.01,1.01Zm0,0" transform="translate(-157.186)" fill="#787878"/><path d="M192.125,61.125a1.011,1.011,0,0,1-1.01-1.01,10.116,10.116,0,0,0-10.1-10.1,1.01,1.01,0,0,1,0-2.021,12.138,12.138,0,0,1,12.124,12.125,1.009,1.009,0,0,1-1.01,1.01Zm0,0" transform="translate(-157.177 -43.949)" fill="#787878"/><path d="M188.083,105.084a1.011,1.011,0,0,1-1.01-1.01,6.069,6.069,0,0,0-6.062-6.062,1.01,1.01,0,0,1,0-2.021,8.092,8.092,0,0,1,8.083,8.083,1.01,1.01,0,0,1-1.01,1.01Zm0,0" transform="translate(-156.844 -88.241)" fill="#787878"/></g></g></svg>