<svg xmlns="http://www.w3.org/2000/svg" width="56" height="56" viewBox="0 0 56 56"><g transform="translate(-1319 -2132)"><rect width="56" height="56" rx="9" transform="translate(1319 2132)" fill="#0191f1"/><g transform="translate(1330.004 2143)"><g transform="translate(-0.003 0)"><path d="M142.751,57.429a4.373,4.373,0,1,0-4.373,4.373,4.373,4.373,0,0,0,4.373-4.373Zm-7.711,0a3.338,3.338,0,1,1,3.338,3.338,3.338,3.338,0,0,1-3.338-3.338Zm0,0" transform="translate(-120.878 -47.754)" fill="#fff"/><path d="M34.962,34.3l-4.2-11.011a.515.515,0,0,0-.482-.332H22.332c.049-.079.1-.156.145-.236,3.059-5.064,4.6-9.494,4.576-13.164a9.557,9.557,0,1,0-19.114,0c-.023,3.674,1.517,8.1,4.576,13.168l.145.236H4.711a.515.515,0,0,0-.482.332L.031,34.3a.514.514,0,0,0,.482.7H34.481a.514.514,0,0,0,.481-.7ZM8.971,9.556a8.527,8.527,0,1,1,17.054,0c.044,7.318-6.8,16.344-8.526,18.509C15.768,25.9,8.926,16.881,8.971,9.556ZM17.1,29.217a.516.516,0,0,0,.785,0,54.643,54.643,0,0,0,3.8-5.229h8.239l.659,1.73-16.1,5.727-5.74-7.457h4.56a54.653,54.653,0,0,0,3.8,5.229Zm-2.638,3.327h0l9.6-3.415L27.8,33.97H10.461Zm-9.4-8.556H7.446l6.017,7.82L7.387,33.969H1.261ZM29.1,33.97,25.1,28.763l5.858-2.083,2.78,7.29Zm0,0" transform="translate(0.003 0)" fill="#fff"/></g></g></g></svg>